<svg width="20" height="18" viewBox="0 0 20 18" fill="none" xmlns="http://www.w3.org/2000/svg">
<g clip-path="url(#clip0_3340_18915)">
<path d="M15.154 15.4001C15.154 16.2801 14.434 17.0001 13.554 17.0001C12.674 17.0001 11.954 16.2801 11.954 15.4001C11.954 14.5201 12.674 13.8001 13.554 13.8001C14.434 13.8001 15.154 14.5201 15.154 15.4001ZM3.6 1.24609L4.36 2.84609H16.2C16.64 2.84609 17 3.16609 17 3.60609C17 3.76609 16.967 3.91209 16.92 4.00609L14.04 8.96009C13.76 9.48009 13.24 9.80009 12.64 9.80009H6.68L5.88 11.0621C5.88 11.0621 5.796 11.2221 5.796 11.2621C5.796 11.3821 5.876 11.4621 5.996 11.4621H15.154V13.0001H5.8C4.808 13.0001 4.076 12.4711 4.076 11.4001C4.076 11.1201 4.156 10.8401 4.276 10.6401L5.48 8.68009L2.6 2.84609H1V1.24609H3.6ZM7.277 15.4001C7.277 16.2801 6.557 17.0001 5.677 17.0001C4.797 17.0001 4.077 16.2801 4.077 15.4001C4.077 14.5201 4.797 13.8001 5.677 13.8001C6.557 13.8001 7.277 14.5201 7.277 15.4001Z" fill="#3668C9"/>
</g>
<defs>
<clipPath id="clip0_3340_18915">
<rect width="19" height="17" fill="white" transform="translate(0.5 0.5)"/>
</clipPath>
</defs>
</svg>
